<svg xmlns="http://www.w3.org/2000/svg" width="112.456" height="99.911" viewBox="0 0 112.456 99.911"><path fill="#BA141A" d="M61.005 7.747c1.083 0 3.958.52 3.958 2.03 0 .943-1.3 1.327-2.038 1.42-18.764 2.425-40.723 13.92-40.723 35.483 0 12.863 8.894 29.464 8.894 30.423 0 1.214-2.063 1.484-2.926 1.484-1.17 0-3.224-.384-3.83-1.548-5.172-9.93-9.022-19.563-9.022-30.905 0-23.568 24.516-35.61 44.8-38.327l.887-.06z"/><path fill="none" d="M61.005 7.747c1.083 0 3.958.52 3.958 2.03 0 .943-1.3 1.327-2.038 1.42-18.764 2.425-40.723 13.92-40.723 35.483 0 12.863 8.894 29.464 8.894 30.423 0 1.214-2.063 1.484-2.926 1.484-1.17 0-3.224-.384-3.83-1.548-5.172-9.93-9.022-19.563-9.022-30.905 0-23.568 24.516-35.61 44.8-38.327l.887-.06z"/><path fill="#BA141A" d="M32.406 10.15c.738 0 1.01.72 1.01 1.35 0 7.77-28.673 13.335-28.673 39.35 0 18.984 21.182 33.067 21.182 35.642 0 1.685-1.85 4.747-3.743 4.747a.946.946 0 0 1-.622-.23C9.937 80.73 0 69.092 0 52.812 0 34.998 16.736 18.457 31.458 10.42c.29-.158.615-.27.948-.27z"/><path fill="none" d="M32.406 10.15c.738 0 1.01.72 1.01 1.35 0 7.77-28.673 13.335-28.673 39.35 0 18.984 21.182 33.067 21.182 35.642 0 1.685-1.85 4.747-3.743 4.747a.946.946 0 0 1-.622-.23C9.937 80.73 0 69.092 0 52.812 0 34.998 16.736 18.457 31.458 10.42c.29-.158.615-.27.948-.27z"/><path fill="#BA141A" d="M112.456 38.974c0 .672-.572 1.004-1.182 1.004-1.765 0-3.99-1.928-4.475-3.574C100.19 13.96 77.372 5.172 55.804 5.172c-5.235 0-10.518 1.396-15.607 1.396-1.812 0-4.56-2.277-4.56-4.168 0-2.518 14.81-2.4 16.68-2.4 25.4 0 52.335 12.345 60.052 38.38l.086.594z"/><path fill="none" d="M112.456 38.974c0 .672-.572 1.004-1.182 1.004-1.765 0-3.99-1.928-4.475-3.574C100.19 13.96 77.372 5.172 55.804 5.172c-5.235 0-10.518 1.396-15.607 1.396-1.812 0-4.56-2.277-4.56-4.168 0-2.518 14.81-2.4 16.68-2.4 25.4 0 52.335 12.345 60.052 38.38l.086.594z"/><g><path fill="#BA141A" d="M101.73 98.906c0 .672-.573 1.005-1.184 1.005-.496 0-.952-.18-1.402-.365-9.498-3.918-26.417-4.714-36.38-4.714-8.99 0-18.016 1.448-26.902 1.448-1.812 0-4.56-2.276-4.56-4.167 0-.56.43-.94.966-.993 9.015-.87 18.06-1.46 27.12-1.46 2.343 0 42.342.633 42.342 9.25z"/><path fill="none" d="M101.73 98.906c0 .672-.573 1.005-1.184 1.005-.496 0-.952-.18-1.402-.365-9.498-3.918-26.417-4.714-36.38-4.714-8.99 0-18.016 1.448-26.902 1.448-1.812 0-4.56-2.276-4.56-4.167 0-.56.43-.94.966-.993 9.015-.87 18.06-1.46 27.12-1.46 2.343 0 42.342.633 42.342 9.25z"/></g><path fill="#BA141A" d="M81.383 64.747c-.684-.67-1.174-1.318-1.37-1.83-.355-.907.222-1.385 1.3-1.05.695.242 1.377 1.81 1.93 2.158.606.38 1.157.728 1.732 1.003 1.594-.083 3.35-.435 5.197-1.168.8-.318 1.224-.938 1.553-1.522-3.537-1.39-2.332-3.69-2.565-4.518-.252-.896.033-1.108.375-1.023 1.354-.536.432-3.168 1.98-4.6 1.83-1.692 3.884-1.435 4.514-1.427 4.29.053 6.766 2.7 6.766 5.89 0 3.056-2.118 6.184-4.8 6.39-.184.056-.337-.543-.445-.543-3.874 0-4.104 12.55-4.104 13.412s.876 1.067 1.165 2.7c.338 3.02-1.1 7.935-1.1 9.872 0 .422-1.17.256-1.036.696.41 1.357-.677 4.207-.32 3.617.493.392-3.375-.18-3.203-.524.174.346-.118-2.637-.118-3.498-.056-.058-.197-.102-.477-.237-.135-.44-.304-.95-.494-1.51-.25.596-.44 1.108-.524 1.5-.088.414-.73-.21-.692.25.12 1.413-1.37 3.992-.9 3.488.4.486-3.43-.102-3.188-.402.097.373.432-3.397.61-4.24.04-.19-.5.04-1.19-.496-.163-1.8 1.623-4.783 1.855-7.257-.344-.056-.637-.128-.715-.306-1.464-7.598 1.04-9.39 1.753-11.302-3.76.048-8.28-3.484-9.025-5.302-.37-.9.198-1.39 1.283-1.074 1.11.475.897 1.502 1.88 2.015.655.34 1.457.635 2.377.84z"/><g><circle fill="#BA141A" cx="69.459" cy="55.651" r="3.783"/></g><path fill="#BA141A" d="M47.293 41.766c3.756 0 8.608 3.64 8.608 7.356 0 .783-1.564 2.348-1.564 3.13 0 .783.764.45.614 1.312-.634 1.185-1.418 4.32-5.406 3.528-.263.28-.217.168-.217.95 0 .784.948 1.897 1.13 2.935.984 5.618 6.844 7.335 7.79 6.458.996-.922 1.254-1.012 2.82-.622 1.08 1.017-5.36 5.12-10.628.35l3.103 13.707c-3.207.84-5.92 1.2-5.92 1.2.177-.048-.097 9.897-.578 10.018.354-.708-.67 1.335-1.91-.6-2.246-6.45-.96-9.058-.96-9.058-.347.02-.705.02-1.07-.002-.4 1.963-2.324 9.13-2.75 9.14.503-.61-.954 1.15-1.727-1.015-.59-5.418.462-7.945.912-8.746-3.112-.83-5.96-2.185-6.458-2.225.285-1.387 6.736-11.522 6.918-11.492.882-2.817 1.137-6.652 3.38-9.875-.27-.217-2.28 1.518-4.24-.64 2.55.492 3.612-1.097 3.612-1.88S41.5 48.81 41.5 48.028c.002-3.092 1.606-6.26 5.793-6.26z"/></svg>