<?xml version="1.0" encoding="utf-8"?>
<!-- Generator: Adobe Illustrator 16.0.0, SVG Export Plug-In . SVG Version: 6.00 Build 0)  -->
<!DOCTYPE svg PUBLIC "-//W3C//DTD SVG 1.1//EN" "http://www.w3.org/Graphics/SVG/1.1/DTD/svg11.dtd">
<svg version="1.1" id="Ebene_1" xmlns="http://www.w3.org/2000/svg" xmlns:xlink="http://www.w3.org/1999/xlink" x="0px" y="0px"
	 width="112.456px" height="99.911px" viewBox="0 0 112.456 99.911" enable-background="new 0 0 112.456 99.911"
	 xml:space="preserve">
<g>
	<g>
		<g>
			<g>
				<g>
					<path fill="#BA141A" d="M61.005,7.747c1.083,0,3.958,0.519,3.958,2.029c0,0.944-1.301,1.328-2.038,1.422
						C44.161,13.622,22.202,25.118,22.202,46.68c0,12.863,8.894,29.464,8.894,30.423c0,1.214-2.063,1.484-2.926,1.484
						c-1.169,0-3.224-0.384-3.831-1.548c-5.171-9.928-9.021-19.562-9.021-30.904c0-23.568,24.516-35.611,44.8-38.327L61.005,7.747z"
						/>
					<path fill="none" stroke="#BA141A" stroke-width="0" stroke-miterlimit="1" d="M61.005,7.747c1.083,0,3.958,0.519,3.958,2.029
						c0,0.944-1.301,1.328-2.038,1.422C44.161,13.622,22.202,25.118,22.202,46.68c0,12.863,8.894,29.464,8.894,30.423
						c0,1.214-2.063,1.484-2.926,1.484c-1.169,0-3.224-0.384-3.831-1.548c-5.171-9.928-9.021-19.562-9.021-30.904
						c0-23.568,24.516-35.611,44.8-38.327L61.005,7.747z"/>
				</g>
			</g>
		</g>
		<g>
			<g>
				<g>
					<path fill="#BA141A" d="M32.406,10.151c0.738,0,1.009,0.72,1.009,1.349c0,7.769-28.672,13.335-28.672,39.351
						c0,18.983,21.182,33.066,21.182,35.641c0,1.685-1.851,4.747-3.743,4.747c-0.226,0-0.452-0.08-0.622-0.23
						C9.937,80.729,0,69.093,0,52.813C0,34.998,16.736,18.457,31.458,10.42C31.749,10.262,32.073,10.151,32.406,10.151z"/>
					<path fill="none" stroke="#BA141A" stroke-width="0" stroke-miterlimit="1" d="M32.406,10.151c0.738,0,1.009,0.72,1.009,1.349
						c0,7.769-28.672,13.335-28.672,39.351c0,18.983,21.182,33.066,21.182,35.641c0,1.685-1.851,4.747-3.743,4.747
						c-0.226,0-0.452-0.08-0.622-0.23C9.937,80.729,0,69.093,0,52.813C0,34.998,16.736,18.457,31.458,10.42
						C31.749,10.262,32.073,10.151,32.406,10.151z"/>
				</g>
			</g>
		</g>
		<g>
			<g>
				<g>
					<path fill="#BA141A" d="M112.456,38.974c0,0.672-0.572,1.004-1.182,1.004c-1.765,0-3.99-1.928-4.475-3.574
						C100.192,13.961,77.373,5.172,55.805,5.172c-5.235,0-10.518,1.396-15.607,1.396c-1.812,0-4.56-2.277-4.56-4.168
						c0-2.518,14.811-2.399,16.679-2.399c25.4,0,52.336,12.344,60.053,38.379L112.456,38.974z"/>
					<path fill="none" stroke="#BA141A" stroke-width="0" stroke-miterlimit="1" d="M112.456,38.974
						c0,0.672-0.572,1.004-1.182,1.004c-1.765,0-3.99-1.928-4.475-3.574C100.192,13.961,77.373,5.172,55.805,5.172
						c-5.235,0-10.518,1.396-15.607,1.396c-1.812,0-4.56-2.277-4.56-4.168c0-2.518,14.811-2.399,16.679-2.399
						c25.4,0,52.336,12.344,60.053,38.379L112.456,38.974z"/>
				</g>
			</g>
		</g>
	</g>
	<g>
		<g>
			<g>
				<path fill="#BA141A" d="M101.73,98.906c0,0.672-0.573,1.005-1.184,1.005c-0.496,0-0.952-0.181-1.402-0.366
					c-9.498-3.918-26.417-4.714-36.38-4.714c-8.991,0-18.016,1.447-26.902,1.447c-1.812,0-4.56-2.276-4.56-4.167
					c0-0.562,0.429-0.942,0.966-0.994c9.015-0.871,18.059-1.459,27.119-1.459C61.731,89.658,101.73,90.29,101.73,98.906z"/>
				<path fill="none" stroke="#BA141A" stroke-width="0" stroke-miterlimit="1" d="M101.73,98.906c0,0.672-0.573,1.005-1.184,1.005
					c-0.496,0-0.952-0.181-1.402-0.366c-9.498-3.918-26.417-4.714-36.38-4.714c-8.991,0-18.016,1.447-26.902,1.447
					c-1.812,0-4.56-2.276-4.56-4.167c0-0.562,0.429-0.942,0.966-0.994c9.015-0.871,18.059-1.459,27.119-1.459
					C61.731,89.658,101.73,90.29,101.73,98.906z"/>
			</g>
		</g>
	</g>
	<path fill="#BA141A" d="M81.383,64.747c-0.684-0.67-1.174-1.318-1.371-1.829c-0.354-0.908,0.223-1.386,1.301-1.051
		c0.695,0.242,1.377,1.809,1.93,2.158c0.606,0.381,1.157,0.728,1.732,1.003c1.594-0.083,3.351-0.435,5.197-1.168
		c0.8-0.318,1.224-0.938,1.553-1.522c-3.537-1.39-2.332-3.689-2.565-4.518c-0.252-0.896,0.033-1.108,0.375-1.023
		c1.354-0.536,0.432-3.168,1.979-4.599c1.832-1.693,3.885-1.436,4.515-1.428c4.29,0.053,6.767,2.699,6.767,5.889
		c0,3.057-2.118,6.185-4.799,6.39c-0.185,0.057-0.338-0.542-0.446-0.542c-3.875,0-4.105,12.55-4.105,13.412s0.876,1.068,1.165,2.701
		c0.337,3.019-1.102,7.935-1.102,9.872c0,0.422-1.169,0.256-1.035,0.696c0.411,1.357-0.677,4.207-0.321,3.617
		c0.494,0.392-3.374-0.18-3.202-0.524c0.173,0.345-0.119-2.638-0.119-3.499c-0.056-0.058-0.197-0.102-0.477-0.237
		c-0.135-0.439-0.304-0.951-0.494-1.509c-0.252,0.595-0.442,1.107-0.525,1.5c-0.088,0.413-0.73-0.21-0.692,0.249
		c0.12,1.413-1.371,3.992-0.9,3.488c0.4,0.486-3.429-0.102-3.188-0.402c0.097,0.372,0.432-3.398,0.61-4.24
		c0.041-0.192-0.501,0.04-1.191-0.497c-0.162-1.8,1.624-4.783,1.856-7.257c-0.345-0.056-0.638-0.128-0.716-0.306
		c-1.464-7.599,1.04-9.391,1.753-11.303c-3.761,0.048-8.281-3.484-9.025-5.302c-0.369-0.901,0.198-1.39,1.283-1.074
		c1.111,0.475,0.897,1.502,1.881,2.015C79.661,64.247,80.463,64.542,81.383,64.747z"/>
	<g>
		<g>
			<circle fill="#BA141A" cx="69.459" cy="55.651" r="3.783"/>
			<path fill="#BA141A" d="M69.458,55.651"/>
		</g>
	</g>
	<path fill="#BA141A" d="M47.293,41.766c3.756,0,8.608,3.639,8.608,7.356c0,0.783-1.565,2.348-1.565,3.13
		c0,0.783,0.764,0.449,0.614,1.312c-0.634,1.185-1.418,4.32-5.406,3.528c-0.263,0.279-0.217,0.168-0.217,0.951
		c0,0.783,0.948,1.896,1.129,2.934c0.985,5.618,6.845,7.335,7.792,6.458c0.995-0.922,1.253-1.012,2.818-0.622
		c1.082,1.017-5.36,5.121-10.627,0.349l3.104,13.708c-3.207,0.841-5.921,1.201-5.921,1.201c0.178-0.049-0.096,9.896-0.577,10.017
		c0.354-0.708-0.669,1.335-1.91-0.601c-2.246-6.45-0.961-9.057-0.961-9.057c-0.346,0.02-0.704,0.019-1.069-0.002
		c-0.401,1.963-2.324,9.131-2.751,9.139c0.504-0.609-0.953,1.15-1.726-1.014c-0.589-5.418,0.462-7.945,0.912-8.746
		c-3.112-0.831-5.959-2.185-6.458-2.225c0.285-1.387,6.736-11.522,6.918-11.492c0.882-2.817,1.137-6.652,3.379-9.875
		c-0.268-0.217-2.279,1.518-4.239-0.64c2.55,0.492,3.612-1.097,3.612-1.879s-1.252-6.887-1.252-7.669
		C41.502,44.935,43.106,41.766,47.293,41.766z"/>
</g>
</svg>
